# xmcd
#
# Track frame offsets: 
#        150
#        9892
#        27010
#        44151
#        52152
#        68957
#        84641
#        101320
#        120350
#        128571
#        143641
#        167677
#        174486
#        192141
#        210301
#        229851
#        239812
#        255307
#        267839
#        282770
#        297861
#        313822
#
# Disc length: 4470 seconds
#
# Revision: 0
# Processed by: cddbd v1.5.2PL0 Copyright (c) Steve Scherf et al.
# Submitted via: ExactAudioCopy v0.99pb5
#
DISCID=31117416
DTITLE=Кит и Гек - Папина Работа
DYEAR=2010
DGENRE=Rap
TTITLE0=Разминка
TTITLE1=Папа, дай жвачку
TTITLE2=МарьИванна
TTITLE3=Самокат
TTITLE4=Реутовская 8, корпус 3
TTITLE5=Мы Х.Х.Х.
TTITLE6=Мне нужна ты
TTITLE7=Бери и делай
TTITLE8=Магнум
TTITLE9=Сигареты
TTITLE10=Хорошо в деревне летом
TTITLE11=ТиВи Щит
TTITLE12=Здоровый образ рэппа
TTITLE13=Грешные
TTITLE14=Наркотики
TTITLE15=Биты и слова
TTITLE16=За Этот мир
TTITLE17=Сэнди и Боря
TTITLE18=Ни о Чем
TTITLE19=Дома
TTITLE20=Барыга помер
TTITLE21=Супер рэп-звезда
EXTD=
EXTT0=
EXTT1=
EXTT2=
EXTT3=
EXTT4=
EXTT5=
EXTT6=
EXTT7=
EXTT8=
EXTT9=
EXTT10=
EXTT11=
EXTT12=
EXTT13=
EXTT14=
EXTT15=
EXTT16=
EXTT17=
EXTT18=
EXTT19=
EXTT20=
EXTT21=
PLAYORDER=
